<?xml version="1.0" encoding="UTF-8"?><svg id="Layer_2" xmlns="http://www.w3.org/2000/svg" viewBox="0 0 119.61 182.82"><defs><style>.cls-1{fill:#010101;}.cls-2{fill:#fff;}</style></defs><g id="Contents"><path class="cls-1" d="m56.05,42.86c-11.68,0-21.18-9.5-21.18-21.18S44.38.5,56.05.5s21.18,9.5,21.18,21.18-9.5,21.18-21.18,21.18Z"/><path class="cls-1" d="m56.05,1c11.4,0,20.68,9.28,20.68,20.68s-9.28,20.68-20.68,20.68-20.68-9.28-20.68-20.68S44.65,1,56.05,1m0-1c-11.97,0-21.68,9.71-21.68,21.68s9.71,21.68,21.68,21.68,21.68-9.71,21.68-21.68S68.03,0,56.05,0h0Z"/><circle class="cls-2" cx="56.69" cy="137.56" r="45.25"/><path class="cls-1" d="m56.69,169.55c-17.06,0-30.94-13.88-30.94-30.94s13.88-30.94,30.94-30.94,30.94,13.88,30.94,30.94-13.88,30.94-30.94,30.94Z"/><path class="cls-1" d="m56.69,108.17c16.79,0,30.44,13.66,30.44,30.44s-13.66,30.44-30.44,30.44-30.44-13.66-30.44-30.44,13.66-30.44,30.44-30.44m0-1c-17.36,0-31.44,14.08-31.44,31.44s14.08,31.44,31.44,31.44,31.44-14.08,31.44-31.44-14.08-31.44-31.44-31.44h0Z"/><rect class="cls-2" x="19.74" y="132.25" width="73.9" height="12.72"/><circle class="cls-2" cx="56.69" cy="138.06" r="20.45"/><path class="cls-1" d="m56.69,148.95c-5.7,0-10.34-4.64-10.34-10.34s4.64-10.34,10.34-10.34,10.34,4.64,10.34,10.34-4.64,10.34-10.34,10.34Z"/><path class="cls-1" d="m56.69,128.77c5.43,0,9.84,4.41,9.84,9.84s-4.41,9.84-9.84,9.84-9.84-4.41-9.84-9.84,4.41-9.84,9.84-9.84m0-1c-5.99,0-10.84,4.85-10.84,10.84s4.85,10.84,10.84,10.84,10.84-4.85,10.84-10.84-4.85-10.84-10.84-10.84h0Z"/><path class="cls-1" d="m97.77,78.92c0,13.6-6.51,25.69-16.58,33.3-5.74-7.62-14.86-12.55-25.14-12.55s-19.4,4.93-25.14,12.55c-10.07-7.61-16.58-19.7-16.58-33.3,0-16.85,9.99-31.36,24.38-37.95,3.95,5.27,10.25,8.67,17.34,8.67s13.39-3.4,17.34-8.67c14.38,6.59,24.37,21.1,24.37,37.95Z"/><path class="cls-1" d="m10.7,42.65l10.99,13.44c-3,4.07-5.29,8.7-6.66,13.71L0,51.4l10.7-8.75Z"/><path class="cls-1" d="m119.61,30.91l-30.5,24.93c-2.63-3.84-5.89-7.21-9.63-9.98l31.38-25.66,8.75,10.7Z"/><path class="cls-2" d="m90.46,54.91l-50.34,41.15-.06-.07-2.07,1.69-22.87-27.96c1.11-5.24,3.19-10.12,6.07-14.43l18.81,23.01,40.85-33.4c3.73,2.78,6.97,6.16,9.6,10.01Z"/></g></svg>