<?xml version="1.0" encoding="UTF-8"?><svg id="Layer_2" xmlns="http://www.w3.org/2000/svg" viewBox="0 0 168.88 72"><defs><style>.cls-1{fill:#010101;}.cls-2,.cls-3,.cls-4{fill:#fff;}.cls-5{fill:#231f20;}.cls-3,.cls-6,.cls-4,.cls-7{stroke-miterlimit:10;}.cls-3,.cls-6,.cls-7{stroke:#231f20;stroke-width:.25px;}.cls-6{fill:#221f1f;}.cls-4{stroke:#010101;}.cls-7{fill:none;}</style></defs><g id="Contents"><ellipse class="cls-2" cx="35.06" cy="36" rx="28.69" ry="29.45"/><ellipse class="cls-1" cx="35.06" cy="25.53" rx="31.88" ry="9.82"/><ellipse class="cls-1" cx="35.06" cy="30.76" rx="31.88" ry="9.82"/><ellipse class="cls-1" cx="35.06" cy="46.47" rx="31.88" ry="9.82"/><ellipse class="cls-1" cx="35.06" cy="41.24" rx="31.88" ry="9.82"/><ellipse class="cls-1" cx="35.06" cy="36" rx="31.88" ry="9.82"/><path class="cls-1" d="m44.63,36c0,18.07-4.28,32.73-9.56,32.73s-9.56-14.65-9.56-32.73"/><ellipse class="cls-1" cx="35.06" cy="36" rx="35.06" ry="36"/><ellipse class="cls-2" cx="35.06" cy="36" rx="28.69" ry="29.45"/><ellipse class="cls-1" cx="35.06" cy="25.53" rx="31.88" ry="9.82"/><ellipse class="cls-1" cx="35.06" cy="30.76" rx="31.88" ry="9.82"/><ellipse class="cls-1" cx="35.06" cy="46.47" rx="31.88" ry="9.82"/><ellipse class="cls-1" cx="35.06" cy="41.24" rx="31.88" ry="9.82"/><ellipse class="cls-1" cx="35.06" cy="36" rx="31.88" ry="9.82"/><path class="cls-1" d="m44.63,36c0,18.07-4.28,32.73-9.56,32.73s-9.56-14.65-9.56-32.73"/><rect class="cls-4" x="17.21" y="22.25" width="35.7" height="27.49"/><ellipse class="cls-1" cx="25.44" cy="28.21" rx="3.19" ry="3.27"/><rect class="cls-1" x="34.04" y="25.2" width="15.3" height="1.96"/><rect class="cls-1" x="34.04" y="28.14" width="15.3" height="1.96"/><rect class="cls-1" x="34.04" y="31.34" width="15.3" height="1.96"/><rect class="cls-1" x="34.04" y="34.54" width="15.3" height="1.96"/><path class="cls-1" d="m25.37,32.35h.14c2.78,0,5.03,2.25,5.03,5.03v7.46c0,1.05-.86,1.91-1.91,1.91h-6.38c-1.05,0-1.91-.86-1.91-1.91v-7.46c0-2.78,2.25-5.03,5.03-5.03Z"/><path class="cls-1" d="m49.36,37.69l-10.05,8.74c-.76.66-1.92.43-2.38-.47l-2.87-5.57,3.12,2.71c.48.42,1.16.5,1.73.2l10.45-5.6Z"/><path class="cls-5" d="m90.57,30.53h-6.89l-1.29,3.85h-4.09l6.68-18.71h4.42l6.63,18.71h-4.24l-1.21-3.85Zm-1.09-3.22l-2.34-7.36-2.41,7.36h4.75Z"/><path class="cls-5" d="m107.1,32.42s-.12.17-.25.38-.3.4-.48.56c-.57.51-1.12.85-1.64,1.04-.53.19-1.15.28-1.86.28-2.05,0-3.43-.74-4.14-2.21-.4-.81-.6-2.01-.6-3.59v-8.34h3.71v8.34c0,.79.09,1.38.28,1.78.33.7.98,1.05,1.94,1.05,1.24,0,2.08-.5,2.54-1.5.24-.54.36-1.26.36-2.15v-7.53h3.67v13.84h-3.52v-1.96Z"/><path class="cls-5" d="m122.21,31.8v2.7l-1.71.06c-1.71.06-2.88-.24-3.5-.89-.41-.41-.61-1.05-.61-1.92v-8.52h-1.93v-2.58h1.93v-3.86h3.58v3.86h2.25v2.58h-2.25v7.31c0,.57.07.92.22,1.06s.58.21,1.32.21c.11,0,.23,0,.35,0,.12,0,.24-.01.36-.02Z"/><path class="cls-5" d="m137.88,22.29c1.17,1.46,1.75,3.19,1.75,5.19s-.58,3.77-1.75,5.21-2.94,2.16-5.32,2.16-4.15-.72-5.32-2.16-1.75-3.18-1.75-5.21.58-3.73,1.75-5.19,2.94-2.2,5.32-2.2,4.15.73,5.32,2.2Zm-5.33.86c-1.06,0-1.87.37-2.44,1.12-.57.75-.86,1.82-.86,3.21s.29,2.46.86,3.21c.57.75,1.38,1.13,2.44,1.13s1.87-.38,2.44-1.13.85-1.82.85-3.21-.28-2.46-.85-3.21-1.38-1.12-2.44-1.12Z"/><path class="cls-5" d="m154.98,30.31c-.09.82-.52,1.65-1.28,2.5-1.19,1.35-2.84,2.02-4.98,2.02-1.76,0-3.31-.57-4.66-1.7s-2.02-2.98-2.02-5.54c0-2.4.61-4.23,1.82-5.51,1.21-1.28,2.79-1.92,4.73-1.92,1.15,0,2.19.22,3.11.65s1.68,1.11,2.29,2.04c.54.82.89,1.77,1.05,2.86.09.63.13,1.55.11,2.74h-9.47c.05,1.39.49,2.36,1.31,2.92.5.35,1.1.52,1.8.52.74,0,1.35-.21,1.82-.63.25-.23.48-.55.67-.95h3.69Zm-3.58-4.24c-.06-.96-.35-1.68-.87-2.18-.52-.5-1.17-.74-1.94-.74-.84,0-1.49.26-1.95.79-.46.52-.75,1.24-.87,2.13h5.62Z"/><path class="cls-5" d="m168.88,34.38h-4.51l-2.39-4.15-2.4,4.15h-4.39l4.72-7.01-4.52-6.8h4.43l2.31,4.01,2.26-4.01h4.3l-4.54,6.74,4.72,7.07Z"/><path class="cls-5" d="m82.66,49.69c.05.98.27,1.77.67,2.38.75,1.14,2.06,1.71,3.94,1.71.84,0,1.61-.12,2.3-.38,1.34-.48,2.01-1.35,2.01-2.6,0-.94-.28-1.61-.85-2-.58-.39-1.48-.73-2.7-1.02l-2.26-.53c-1.48-.34-2.52-.72-3.13-1.14-1.06-.72-1.59-1.79-1.59-3.22,0-1.55.52-2.82,1.56-3.81,1.04-.99,2.52-1.49,4.42-1.49,1.76,0,3.25.44,4.48,1.31,1.23.87,1.84,2.26,1.84,4.18h-2.19c-.11-.92-.35-1.63-.72-2.12-.68-.9-1.84-1.35-3.47-1.35-1.32,0-2.27.29-2.84.87-.58.58-.87,1.25-.87,2.02,0,.84.34,1.46,1.02,1.85.45.25,1.46.56,3.03.94l2.34.55c1.13.27,2,.63,2.61,1.09,1.06.8,1.59,1.97,1.59,3.5,0,1.91-.68,3.27-2.03,4.09-1.35.82-2.92,1.23-4.71,1.23-2.09,0-3.72-.55-4.9-1.64-1.18-1.09-1.76-2.56-1.74-4.42h2.19Z"/><path class="cls-5" d="m108.15,43.37c.89.69,1.42,1.87,1.6,3.55h-2.05c-.12-.77-.41-1.42-.86-1.93s-1.16-.77-2.14-.77c-1.34,0-2.3.66-2.88,1.97-.38.85-.56,1.9-.56,3.15s.27,2.31.8,3.17,1.37,1.29,2.51,1.29c.88,0,1.57-.27,2.08-.8.51-.53.87-1.26,1.06-2.19h2.05c-.23,1.66-.82,2.88-1.76,3.65s-2.14,1.15-3.6,1.15c-1.64,0-2.95-.6-3.93-1.8s-1.46-2.7-1.46-4.49c0-2.2.54-3.92,1.61-5.14s2.43-1.84,4.09-1.84c1.41,0,2.56.34,3.45,1.03Z"/><path class="cls-5" d="m113.21,37.97h2.11v6.42c.5-.63.95-1.08,1.35-1.34.68-.45,1.53-.67,2.54-.67,1.82,0,3.05.64,3.7,1.91.35.7.53,1.66.53,2.89v8.05h-2.17v-7.91c0-.92-.12-1.6-.35-2.03-.38-.69-1.1-1.03-2.16-1.03-.88,0-1.67.3-2.38.9s-1.07,1.74-1.07,3.41v6.66h-2.11v-17.27Z"/><path class="cls-5" d="m160.99,38.03h2.11v17.21h-2.11v-17.21Z"/><circle class="cls-6" cx="132.56" cy="49.01" r="6.42"/><circle class="cls-3" cx="132.56" cy="49.01" r="5.03"/><path class="cls-7" d="m134.32,49.35l2.8,1.61-.59,1.02-2.79-1.61-.59.34v3.22h-1.18v-3.22l-.59-.34-2.79,1.61-.59-1.02,2.8-1.61s-.03-.22-.03-.34.01-.24.04-.36l-2.81-1.59.59-1.02,2.79,1.61.59-.34v-3.22h1.18v3.22l.59.34,2.79-1.61.59,1.02-2.8,1.61s.03.22.03.34-.03.34-.03.34Z"/><circle class="cls-3" cx="132.56" cy="49.01" r=".75"/><circle class="cls-6" cx="148.6" cy="49.01" r="6.42"/><circle class="cls-3" cx="148.6" cy="49.01" r="5.03"/><path class="cls-7" d="m150.36,49.35l2.8,1.61-.59,1.02-2.79-1.61-.59.34v3.22h-1.18v-3.22l-.59-.34-2.79,1.61-.59-1.02,2.8-1.61s-.03-.22-.03-.34.01-.24.04-.36l-2.81-1.59.59-1.02,2.79,1.61.59-.34v-3.22h1.18v3.22l.59.34,2.79-1.61.59,1.02-2.8,1.61s.03.22.03.34-.03.34-.03.34Z"/><circle class="cls-3" cx="148.6" cy="49.01" r=".75"/></g></svg>