<?xml version="1.0" encoding="UTF-8"?><svg id="Layer_2" xmlns="http://www.w3.org/2000/svg" viewBox="0 0 70.13 107.98"><defs><style>.cls-1{fill:#010101;}.cls-2,.cls-3,.cls-4{fill:#fff;}.cls-5{fill:#231f20;}.cls-3,.cls-6,.cls-4,.cls-7{stroke-miterlimit:10;}.cls-3,.cls-6,.cls-7{stroke:#231f20;stroke-width:.25px;}.cls-6{fill:#221f1f;}.cls-4{stroke:#010101;}.cls-7{fill:none;}</style></defs><g id="Contents"><ellipse class="cls-2" cx="35.06" cy="36" rx="28.69" ry="29.45"/><ellipse class="cls-1" cx="35.06" cy="25.53" rx="31.88" ry="9.82"/><ellipse class="cls-1" cx="35.06" cy="30.76" rx="31.88" ry="9.82"/><ellipse class="cls-1" cx="35.06" cy="46.47" rx="31.88" ry="9.82"/><ellipse class="cls-1" cx="35.06" cy="41.24" rx="31.88" ry="9.82"/><ellipse class="cls-1" cx="35.06" cy="36" rx="31.88" ry="9.82"/><path class="cls-1" d="m44.63,36c0,18.07-4.28,32.73-9.56,32.73s-9.56-14.65-9.56-32.73"/><ellipse class="cls-1" cx="35.06" cy="36" rx="35.06" ry="36"/><ellipse class="cls-2" cx="35.06" cy="36" rx="28.69" ry="29.45"/><ellipse class="cls-1" cx="35.06" cy="25.53" rx="31.88" ry="9.82"/><ellipse class="cls-1" cx="35.06" cy="30.76" rx="31.88" ry="9.82"/><ellipse class="cls-1" cx="35.06" cy="46.47" rx="31.88" ry="9.82"/><ellipse class="cls-1" cx="35.06" cy="41.24" rx="31.88" ry="9.82"/><ellipse class="cls-1" cx="35.06" cy="36" rx="31.88" ry="9.82"/><path class="cls-1" d="m44.63,36c0,18.07-4.28,32.73-9.56,32.73s-9.56-14.65-9.56-32.73"/><rect class="cls-4" x="17.21" y="22.25" width="35.7" height="27.49"/><ellipse class="cls-1" cx="25.44" cy="28.21" rx="3.19" ry="3.27"/><rect class="cls-1" x="34.04" y="25.2" width="15.3" height="1.96"/><rect class="cls-1" x="34.04" y="28.14" width="15.3" height="1.96"/><rect class="cls-1" x="34.04" y="31.34" width="15.3" height="1.96"/><rect class="cls-1" x="34.04" y="34.54" width="15.3" height="1.96"/><path class="cls-1" d="m25.37,32.35h.14c2.78,0,5.03,2.25,5.03,5.03v7.46c0,1.05-.86,1.91-1.91,1.91h-6.38c-1.05,0-1.91-.86-1.91-1.91v-7.46c0-2.78,2.25-5.03,5.03-5.03Z"/><path class="cls-1" d="m49.36,37.69l-10.05,8.74c-.76.66-1.92.43-2.38-.47l-2.87-5.57,3.12,2.71c.48.42,1.16.5,1.73.2l10.45-5.6Z"/><path class="cls-5" d="m9.58,88.5h-5.32l-1,2.97H.1l5.16-14.45h3.41l5.12,14.45h-3.27l-.93-2.97Zm-.84-2.49l-1.8-5.68-1.86,5.68h3.67Z"/><path class="cls-5" d="m22.34,89.96s-.09.13-.2.29-.23.31-.37.43c-.44.39-.86.66-1.27.8-.41.14-.89.22-1.44.22-1.58,0-2.65-.57-3.2-1.71-.31-.63-.46-1.55-.46-2.77v-6.44h2.86v6.44c0,.61.07,1.06.22,1.37.25.54.75.81,1.5.81.95,0,1.61-.39,1.96-1.16.18-.42.27-.97.27-1.66v-5.81h2.83v10.68h-2.71v-1.51Z"/><path class="cls-5" d="m34,89.48v2.09l-1.32.05c-1.32.05-2.22-.18-2.7-.69-.31-.32-.47-.81-.47-1.48v-6.58h-1.49v-1.99h1.49v-2.98h2.76v2.98h1.73v1.99h-1.73v5.65c0,.44.06.71.17.82s.45.16,1.02.16c.08,0,.17,0,.27,0,.09,0,.19,0,.28-.01Z"/><path class="cls-5" d="m46.09,82.14c.9,1.13,1.35,2.47,1.35,4.01s-.45,2.91-1.35,4.02-2.27,1.67-4.11,1.67-3.2-.56-4.11-1.67-1.35-2.46-1.35-4.02.45-2.88,1.35-4.01,2.27-1.7,4.11-1.7,3.2.57,4.11,1.7Zm-4.12.67c-.82,0-1.45.29-1.89.87-.44.58-.66,1.4-.66,2.47s.22,1.9.66,2.48c.44.58,1.07.87,1.89.87s1.44-.29,1.88-.87.66-1.41.66-2.48-.22-1.9-.66-2.47-1.06-.87-1.88-.87Z"/><path class="cls-5" d="m59.29,88.34c-.07.63-.4,1.28-.99,1.93-.92,1.04-2.2,1.56-3.84,1.56-1.36,0-2.56-.44-3.6-1.31s-1.56-2.3-1.56-4.27c0-1.85.47-3.27,1.41-4.25.94-.99,2.15-1.48,3.65-1.48.89,0,1.69.17,2.4.5s1.3.86,1.76,1.58c.42.63.69,1.37.81,2.21.07.49.1,1.2.09,2.12h-7.31c.04,1.07.38,1.82,1.01,2.25.39.27.85.4,1.39.4.57,0,1.04-.16,1.4-.49.2-.18.37-.42.52-.74h2.85Zm-2.76-3.27c-.05-.74-.27-1.3-.67-1.68-.4-.38-.9-.57-1.49-.57-.65,0-1.15.2-1.5.61-.36.41-.58.95-.67,1.65h4.34Z"/><path class="cls-5" d="m70.03,91.47h-3.48l-1.84-3.2-1.85,3.2h-3.39l3.65-5.41-3.49-5.25h3.42l1.78,3.1,1.74-3.1h3.32l-3.51,5.2,3.65,5.46Z"/><path class="cls-5" d="m3.47,103.3c.04.75.21,1.37.51,1.84.58.88,1.59,1.32,3.04,1.32.65,0,1.24-.1,1.78-.29,1.03-.37,1.55-1.04,1.55-2.01,0-.72-.22-1.24-.66-1.55-.44-.3-1.14-.56-2.09-.79l-1.74-.41c-1.14-.27-1.95-.56-2.42-.88-.82-.55-1.23-1.38-1.23-2.49,0-1.19.4-2.17,1.21-2.94.8-.77,1.94-1.15,3.42-1.15,1.36,0,2.51.34,3.46,1.01.95.67,1.42,1.75,1.42,3.23h-1.69c-.09-.71-.27-1.26-.56-1.64-.53-.69-1.42-1.04-2.68-1.04-1.02,0-1.75.22-2.19.67-.45.45-.67.96-.67,1.56,0,.65.26,1.13.79,1.43.34.19,1.12.43,2.34.72l1.81.43c.87.21,1.54.49,2.02.84.82.62,1.23,1.52,1.23,2.7,0,1.47-.52,2.52-1.57,3.16-1.04.63-2.26.95-3.64.95-1.61,0-2.87-.42-3.78-1.27-.91-.84-1.36-1.98-1.34-3.41h1.69Z"/><path class="cls-5" d="m23.14,98.41c.68.53,1.1,1.44,1.23,2.74h-1.58c-.1-.6-.32-1.09-.66-1.49s-.9-.59-1.66-.59c-1.04,0-1.78.51-2.23,1.52-.29.66-.43,1.47-.43,2.43s.21,1.79.62,2.45,1.06.99,1.94.99c.68,0,1.21-.21,1.61-.62.4-.41.67-.97.82-1.69h1.58c-.18,1.28-.63,2.22-1.36,2.82s-1.65.89-2.78.89c-1.27,0-2.28-.46-3.03-1.39s-1.13-2.08-1.13-3.47c0-1.7.41-3.02,1.24-3.97s1.88-1.42,3.16-1.42c1.09,0,1.98.27,2.66.8Z"/><path class="cls-5" d="m27.05,94.25h1.63v4.96c.39-.49.73-.83,1.04-1.03.52-.34,1.18-.52,1.96-.52,1.41,0,2.36.49,2.86,1.47.27.54.41,1.28.41,2.23v6.22h-1.67v-6.11c0-.71-.09-1.23-.27-1.57-.3-.53-.85-.8-1.66-.8-.68,0-1.29.23-1.84.7s-.82,1.34-.82,2.63v5.14h-1.63v-13.33Z"/><path class="cls-5" d="m63.93,94.3h1.63v13.29h-1.63v-13.29Z"/><circle class="cls-6" cx="41.99" cy="102.77" r="4.96"/><circle class="cls-3" cx="41.99" cy="102.77" r="3.88"/><path class="cls-7" d="m43.35,103.04l2.16,1.24-.46.79-2.15-1.24-.46.26v2.49h-.91v-2.49l-.46-.26-2.15,1.24-.46-.79,2.16-1.24s-.02-.17-.02-.26,0-.19.03-.28l-2.17-1.23.46-.79,2.15,1.24.46-.26v-2.49h.91v2.49l.46.26,2.15-1.24.46.79-2.16,1.24s.02.17.02.26-.02.26-.02.26Z"/><circle class="cls-3" cx="41.99" cy="102.77" r=".58"/><circle class="cls-6" cx="54.37" cy="102.77" r="4.96"/><circle class="cls-3" cx="54.37" cy="102.77" r="3.88"/><path class="cls-7" d="m55.73,103.04l2.16,1.24-.46.79-2.15-1.24-.46.26v2.49h-.91v-2.49l-.46-.26-2.15,1.24-.46-.79,2.16-1.24s-.02-.17-.02-.26,0-.19.03-.28l-2.17-1.23.46-.79,2.15,1.24.46-.26v-2.49h.91v2.49l.46.26,2.15-1.24.46.79-2.16,1.24s.02.17.02.26-.02.26-.02.26Z"/><circle class="cls-3" cx="54.37" cy="102.77" r=".58"/></g></svg>