<?xml version="1.0" encoding="UTF-8"?><svg id="Layer_2" xmlns="http://www.w3.org/2000/svg" viewBox="0 0 143.23 63.38"><defs><style>.cls-1{fill:#043b4c;}.cls-2,.cls-3{fill:#fff;}.cls-3{stroke:#043b4c;stroke-miterlimit:10;}</style></defs><g id="Contents"><path class="cls-1" d="m19.41,23.5h-10.9l-2.05,6.08H0L10.56,0h6.99l10.48,29.59h-6.7l-1.91-6.08Zm-1.73-5.1l-3.69-11.64-3.81,11.64h7.51Z"/><path class="cls-1" d="m45.54,26.5c-.05.07-.19.27-.4.6s-.47.63-.76.88c-.9.8-1.76,1.35-2.6,1.65-.84.29-1.82.44-2.94.44-3.24,0-5.42-1.16-6.54-3.49-.63-1.28-.94-3.18-.94-5.68V7.71h5.86v13.19c0,1.24.15,2.18.44,2.81.52,1.11,1.55,1.67,3.07,1.67,1.95,0,3.29-.79,4.01-2.37.38-.86.56-1.99.56-3.39V7.71h5.8v21.88h-5.56v-3.09Z"/><path class="cls-1" d="m69.43,25.51v4.28l-2.71.1c-2.7.09-4.55-.37-5.54-1.41-.64-.66-.96-1.67-.96-3.03v-13.47h-3.05v-4.07h3.05V1.81h5.66v6.1h3.55v4.07h-3.55v11.56c0,.9.11,1.46.34,1.68s.92.33,2.09.33c.17,0,.36,0,.55-.01.19,0,.38-.02.57-.03Z"/><path class="cls-1" d="m94.2,10.48c1.85,2.32,2.77,5.05,2.77,8.21s-.92,5.96-2.77,8.24-4.65,3.42-8.41,3.42-6.56-1.14-8.41-3.42-2.77-5.03-2.77-8.24.92-5.89,2.77-8.21,4.65-3.47,8.41-3.47,6.56,1.16,8.41,3.47Zm-8.43,1.36c-1.67,0-2.96.59-3.86,1.78-.9,1.18-1.36,2.87-1.36,5.07s.45,3.89,1.36,5.08c.9,1.19,2.19,1.79,3.86,1.79s2.96-.6,3.85-1.79,1.34-2.88,1.34-5.08-.45-3.88-1.34-5.07-2.18-1.78-3.85-1.78Z"/><path class="cls-1" d="m121.24,23.16c-.15,1.3-.82,2.62-2.03,3.95-1.87,2.13-4.5,3.19-7.87,3.19-2.78,0-5.24-.9-7.37-2.69s-3.19-4.71-3.19-8.75c0-3.79.96-6.69,2.88-8.71,1.92-2.02,4.41-3.03,7.48-3.03,1.82,0,3.46.34,4.92,1.02s2.66,1.76,3.61,3.23c.86,1.3,1.41,2.8,1.67,4.52.15,1,.21,2.45.18,4.34h-14.97c.08,2.19.77,3.73,2.07,4.62.79.55,1.74.82,2.85.82,1.18,0,2.13-.33,2.87-1,.4-.36.76-.86,1.06-1.51h5.84Zm-5.66-6.7c-.09-1.51-.55-2.66-1.38-3.44-.82-.78-1.84-1.17-3.06-1.17-1.32,0-2.35.41-3.08,1.24-.73.83-1.19,1.95-1.37,3.37h8.89Z"/><path class="cls-1" d="m143.23,29.59h-7.13l-3.77-6.56-3.79,6.56h-6.95l7.47-11.08-7.15-10.76h7.01l3.65,6.34,3.57-6.34h6.8l-7.19,10.66,7.47,11.18Z"/><path class="cls-1" d="m6.9,53.8c.08,1.54.43,2.8,1.05,3.76,1.18,1.8,3.25,2.71,6.23,2.71,1.33,0,2.55-.2,3.64-.59,2.12-.77,3.18-2.14,3.18-4.11,0-1.48-.45-2.54-1.35-3.17-.91-.62-2.33-1.15-4.27-1.61l-3.57-.83c-2.33-.54-3.99-1.14-4.95-1.8-1.68-1.14-2.51-2.83-2.51-5.1,0-2.45.82-4.45,2.47-6.02,1.65-1.57,3.98-2.35,7-2.35,2.78,0,5.14.69,7.08,2.07,1.94,1.38,2.91,3.58,2.91,6.61h-3.46c-.18-1.46-.56-2.58-1.14-3.35-1.08-1.42-2.91-2.13-5.49-2.13-2.08,0-3.58.46-4.49,1.37-.91.91-1.37,1.98-1.37,3.19,0,1.33.54,2.31,1.62,2.93.71.4,2.3.89,4.79,1.48l3.7.87c1.78.42,3.16.99,4.13,1.72,1.68,1.27,2.51,3.12,2.51,5.54,0,3.01-1.07,5.17-3.21,6.47-2.14,1.3-4.62,1.95-7.45,1.95-3.3,0-5.89-.86-7.75-2.59-1.87-1.72-2.78-4.05-2.75-6.99h3.46Z"/><path class="cls-1" d="m47.19,43.8c1.4,1.09,2.25,2.96,2.53,5.61h-3.24c-.2-1.22-.65-2.24-1.35-3.05s-1.83-1.21-3.39-1.21c-2.12,0-3.64,1.04-4.56,3.11-.59,1.34-.89,3-.89,4.98s.42,3.66,1.26,5.01,2.16,2.04,3.97,2.04c1.38,0,2.48-.42,3.29-1.26.81-.84,1.37-2,1.68-3.46h3.24c-.37,2.63-1.3,4.55-2.78,5.77s-3.38,1.83-5.69,1.83c-2.59,0-4.66-.95-6.21-2.84s-2.32-4.26-2.32-7.11c0-3.48.85-6.19,2.54-8.13s3.85-2.91,6.47-2.91c2.24,0,4.05.54,5.46,1.63Z"/><path class="cls-1" d="m55.21,35.28h3.34v10.15c.79-1,1.5-1.7,2.13-2.11,1.07-.7,2.41-1.06,4.02-1.06,2.88,0,4.83,1.01,5.85,3.02.56,1.1.83,2.62.83,4.58v12.73h-3.43v-12.51c0-1.46-.19-2.53-.56-3.21-.61-1.09-1.74-1.63-3.41-1.63-1.38,0-2.64.48-3.76,1.43s-1.69,2.75-1.69,5.39v10.52h-3.34v-27.31Z"/><path class="cls-1" d="m130.74,35.37h3.34v27.22h-3.34v-27.22Z"/><circle class="cls-1" cx="85.79" cy="52.73" r="10.15"/><circle class="cls-2" cx="85.79" cy="52.73" r="7.95"/><path class="cls-3" d="m88.58,53.27l4.43,2.55-.93,1.61-4.41-2.55-.93.54v5.09h-1.87v-5.09l-.93-.54-4.41,2.55-.93-1.61,4.43-2.55s-.05-.35-.05-.54.02-.38.06-.57l-4.44-2.51.93-1.61,4.41,2.55.93-.54v-5.09h1.87v5.09l.93.54,4.41-2.55.93,1.61-4.43,2.55s.05.35.05.54-.05.54-.05.54Z"/><circle class="cls-1" cx="85.79" cy="52.73" r="1.18"/><circle class="cls-1" cx="111.15" cy="52.73" r="10.15"/><circle class="cls-2" cx="111.15" cy="52.73" r="7.95"/><path class="cls-3" d="m113.94,53.27l4.43,2.55-.93,1.61-4.41-2.55-.93.54v5.09h-1.87v-5.09l-.93-.54-4.41,2.55-.93-1.61,4.43-2.55s-.05-.35-.05-.54.02-.38.06-.57l-4.44-2.51.93-1.61,4.41,2.55.93-.54v-5.09h1.87v5.09l.93.54,4.41-2.55.93,1.61-4.43,2.55s.05.35.05.54-.05.54-.05.54Z"/><circle class="cls-1" cx="111.15" cy="52.73" r="1.18"/></g></svg>