<?xml version="1.0" encoding="UTF-8"?><svg id="Layer_2" xmlns="http://www.w3.org/2000/svg" viewBox="0 0 156.66 109.46"><defs><style>.cls-1{fill:#010101;}.cls-2{fill:#fff;}</style></defs><g id="Contents"><path class="cls-1" d="m79.84,39.03c-10.62,0-19.27-8.64-19.27-19.27S69.22.5,79.84.5s19.27,8.64,19.27,19.27-8.64,19.27-19.27,19.27Z"/><path class="cls-1" d="m79.84,1c10.35,0,18.77,8.42,18.77,18.77s-8.42,18.77-18.77,18.77-18.77-8.42-18.77-18.77S69.49,1,79.84,1m0-1c-10.92,0-19.77,8.85-19.77,19.77s8.85,19.77,19.77,19.77,19.77-8.85,19.77-19.77S90.76,0,79.84,0h0Z"/><path class="cls-1" d="m118.9,78.16c0,12.79-6.12,24.15-15.59,31.3-5.39-7.17-13.97-11.8-23.63-11.8s-18.24,4.63-23.63,11.8c-9.47-7.16-15.59-18.52-15.59-31.3,0-15.84,9.4-29.48,22.92-35.68,3.72,4.95,9.64,8.15,16.3,8.15s12.59-3.2,16.3-8.15c13.52,6.19,22.91,19.84,22.91,35.68Z"/><path class="cls-2" d="m0,53.89s56.59,44.27,66.22,46.35C82.52,103.75,140.32,22.96,156.53.27c3.82-5.35-72.94,76.88-92.17,76.64C45.49,76.68,0,53.89,0,53.89Z"/><path class="cls-1" d="m40.43,78.43c0,2.33.18,4.62.52,6.85C22.28,71.03.54,52.82,0,52.36c.55.29,21.71,11.62,41.01,18.82-.38,2.35-.58,4.78-.58,7.25Z"/><path class="cls-1" d="m156.49.27c-7.84,10.98-25.42,35.55-43.31,57.6-2.04-3.35-4.56-6.37-7.48-8.96C131.74,25.73,158.8-2.96,156.49.27Z"/></g></svg>