<?xml version="1.0" encoding="UTF-8"?><svg id="Layer_2" xmlns="http://www.w3.org/2000/svg" viewBox="0 0 110.35 110.39"><defs><style>.cls-1{fill:#010101;}.cls-2{fill:#fff;}</style></defs><g id="Contents"><path class="cls-1" d="m62.27,41.51c-11.31,0-20.51-9.2-20.51-20.51S50.97.5,62.27.5s20.51,9.2,20.51,20.51-9.2,20.51-20.51,20.51Z"/><path class="cls-1" d="m62.27,1c11.03,0,20.01,8.98,20.01,20.01s-8.98,20.01-20.01,20.01-20.01-8.98-20.01-20.01S51.24,1,62.27,1m0-1c-11.6,0-21.01,9.41-21.01,21.01s9.41,21.01,21.01,21.01,21.01-9.41,21.01-21.01S73.88,0,62.27,0h0Z"/><path class="cls-1" d="m104.14,110.39c.06-.88.09-1.78.09-2.67,0-3.31-.38-6.53-1.11-9.62-4.35-18.53-20.99-32.33-40.85-32.33-6.89,0-13.4,1.66-19.14,4.61-7.64,3.92-13.92,10.12-17.94,17.7-3.88-3.32-7.22-7.25-9.88-11.65-4.4-7.26-6.93-15.77-6.93-24.87,0-8.59,2.25-16.66,6.21-23.64-.06.88-.09,1.77-.09,2.66,0,10.2,3.64,19.55,9.69,26.82,4.75-6.15,10.95-11.12,18.1-14.39,4.55,6.07,11.81,9.99,19.99,9.99s15.43-3.92,19.98-9.99c16.58,7.59,28.09,24.32,28.09,43.73,0,8.6-2.25,16.66-6.21,23.65Z"/><path class="cls-1" d="m98.16,108.3c0,.7-.02,1.4-.06,2.09H26.45c-.04-.69-.06-1.39-.06-2.09,0-19.82,16.07-35.88,35.88-35.88s35.89,16.06,35.89,35.88Z"/><path class="cls-2" d="m92.71,107.57c0,.95-.04,1.89-.13,2.82H31.97c-.09-.93-.13-1.87-.13-2.82,0-16.81,13.63-30.43,30.43-30.43s30.44,13.63,30.44,30.43Z"/><path class="cls-1" d="m82.9,108.41c0,.67-.03,1.33-.1,1.98h-40.48c-.07-.65-.1-1.31-.1-1.98,0-11.23,9.1-20.33,20.33-20.33s20.33,9.1,20.33,20.33Z"/><rect class="cls-1" x="59.87" y="74.8" width="4.8" height="23.31"/><rect class="cls-1" y="21.21" width="26.73" height="20.77"/><ellipse class="cls-2" cx="7.27" cy="26.8" rx="2.35" ry="2.48"/><rect class="cls-2" x="14.3" y="25.44" width="9.92" height="1.33"/><path class="cls-2" d="m7.27,30.42h0c1.99,0,3.61,1.62,3.61,3.61v4.68H3.65v-4.68c0-1.99,1.62-3.61,3.61-3.61Z"/><rect class="cls-2" x="14.3" y="27.55" width="9.92" height="1.33"/><rect class="cls-2" x="14.3" y="29.66" width="9.92" height="1.33"/><path class="cls-2" d="m14.3,35.65s3.58,2.96,4.19,3.1c1.03.23,4.69-5.16,5.72-6.68.24-.36-4.62,5.14-5.84,5.12s-4.08-1.54-4.08-1.54Z"/></g></svg>