<?xml version="1.0" encoding="UTF-8"?><svg id="Layer_2" xmlns="http://www.w3.org/2000/svg" viewBox="0 0 100.85 118.11"><defs><style>.cls-1{fill:#010101;}.cls-2{fill:#fff;}</style></defs><g id="Contents"><circle class="cls-1" cx="50.34" cy="20.36" r="20.36"/><g id="Artwork_1"><path class="cls-1" d="m100.85,86.99c0,17.14-13.82,31.02-30.94,31.11h-.07c-.38,0-.76-.01-1.14-.04,7.39-5.58,12.17-14.43,12.17-24.4,0-16.87-13.68-30.54-30.54-30.54s-30.54,13.68-30.54,30.54c0,9.97,4.78,18.84,12.18,24.41-.32.02-.65.03-.97.03h-.07c-17.12-.09-30.94-13.97-30.94-31.11,0-21.15,13.01-39.23,31.47-46.68,5.19,4.09,11.75,6.53,18.87,6.53s13.73-2.46,18.93-6.58c18.52,7.43,31.58,25.54,31.58,46.73Z"/></g><circle class="cls-1" cx="50.34" cy="20.36" r="20.36"/><g id="Artwork_1-2"><path class="cls-1" d="m100.85,86.99c0,17.14-13.82,31.02-30.94,31.11h-.07c-.38,0-.76-.01-1.14-.04,7.39-5.58,12.17-14.43,12.17-24.4,0-16.87-13.68-30.54-30.54-30.54s-30.54,13.68-30.54,30.54c0,9.97,4.78,18.84,12.18,24.41-.32.02-.65.03-.97.03h-.07c-17.12-.09-30.94-13.97-30.94-31.11,0-21.15,13.01-39.23,31.47-46.68,5.19,4.09,11.75,6.53,18.87,6.53s13.73-2.46,18.93-6.58c18.52,7.43,31.58,25.54,31.58,46.73Z"/></g><circle class="cls-1" cx="50.34" cy="93.67" r="24.44"/><circle class="cls-1" cx="50.34" cy="93.67" r="24.44"/><path class="cls-2" d="m99.73,33.37c-24.01,34.81-27.36,69.63-58.4,69.63-23.6,0-33.8-35.47-33.94-36.1,6.58,10.02,23.8,19.84,34.52,19.63,27.27-.53,27.72-36.95,57.82-53.15Z"/><path class="cls-1" d="m99.73,33.37c-4.61,6.69-8.47,13.39-11.9,19.83-1.72-1.9-3.58-3.67-5.57-5.27,4.61-5.51,10.17-10.63,17.46-14.56Z"/><rect class="cls-1" x="35.81" y="8.68" width="28.21" height="21.92"/><ellipse class="cls-2" cx="43.48" cy="14.57" rx="2.48" ry="2.61"/><rect class="cls-2" x="50.9" y="13.14" width="10.47" height="1.41"/><path class="cls-2" d="m43.48,18.4h0c2.1,0,3.81,1.71,3.81,3.81v4.94h-7.62v-4.94c0-2.1,1.71-3.81,3.81-3.81Z"/><rect class="cls-2" x="50.9" y="15.37" width="10.47" height="1.41"/><rect class="cls-2" x="50.9" y="17.59" width="10.47" height="1.41"/><path class="cls-2" d="m50.9,23.91s3.78,3.12,4.43,3.27c1.09.25,4.95-5.45,6.04-7.05.26-.38-4.88,5.42-6.16,5.4s-4.3-1.62-4.3-1.62Z"/></g></svg>