<?xml version="1.0" encoding="UTF-8"?><svg id="Layer_2" xmlns="http://www.w3.org/2000/svg" viewBox="0 0 113.84 113.84"><defs><style>.cls-1,.cls-2{fill:#010101;}.cls-3{fill:#043b4c;}.cls-4{fill:#fff;}.cls-5{fill:#ef4870;}.cls-6{fill:#ffd068;}.cls-7{fill:#4dbd97;}.cls-2{font-family:MyriadPro-Regular, 'Myriad Pro';font-size:2.9px;}</style></defs><g id="Contents"><circle class="cls-4" cx="56.92" cy="56.92" r="36.22"/><text class="cls-2" transform="translate(54.26 13.35)"><tspan x="0" y="0">C-2</tspan></text><text class="cls-2" transform="translate(6.49 39.47)"><tspan x="0" y="0">E-1</tspan></text><text class="cls-2" transform="translate(6.29 49.67)"><tspan x="0" y="0">E-2</tspan></text><text class="cls-2" transform="translate(6.31 57.95)"><tspan x="0" y="0">E-3</tspan></text><text class="cls-2" transform="translate(6.25 65.77)"><tspan x="0" y="0">E-4</tspan></text><text class="cls-2" transform="translate(6.25 74.53)"><tspan x="0" y="0">E-5</tspan></text><text class="cls-2" transform="translate(54.26 23.81)"><tspan x="0" y="0">C-3</tspan></text><circle class="cls-4" cx="56.92" cy="56.92" r="36.22"/><text class="cls-2" transform="translate(54.26 2.85)"><tspan x="0" y="0">C-1</tspan></text><text class="cls-2" transform="translate(54.26 13.35)"><tspan x="0" y="0">C-2</tspan></text><text class="cls-2" transform="translate(6.49 39.47)"><tspan x="0" y="0">E-1</tspan></text><text class="cls-2" transform="translate(6.29 49.67)"><tspan x="0" y="0">E-2</tspan></text><text class="cls-2" transform="translate(6.31 57.95)"><tspan x="0" y="0">E-3</tspan></text><text class="cls-2" transform="translate(6.25 65.77)"><tspan x="0" y="0">E-4</tspan></text><text class="cls-2" transform="translate(6.25 74.53)"><tspan x="0" y="0">E-5</tspan></text><text class="cls-2" transform="translate(54.26 23.81)"><tspan x="0" y="0">C-3</tspan></text><circle class="cls-4" cx="56.92" cy="56.92" r="46.57"/><ellipse class="cls-1" cx="56.92" cy="40.36" rx="51.74" ry="15.52"/><ellipse class="cls-1" cx="56.92" cy="48.64" rx="51.74" ry="15.52"/><ellipse class="cls-1" cx="56.92" cy="73.48" rx="51.74" ry="15.52"/><ellipse class="cls-1" cx="56.92" cy="65.2" rx="51.74" ry="15.52"/><ellipse class="cls-1" cx="56.92" cy="56.92" rx="51.74" ry="15.52"/><path class="cls-1" d="m72.44,56.92c0,28.58-6.95,51.74-15.52,51.74s-15.52-23.17-15.52-51.74"/><circle class="cls-3" cx="56.92" cy="56.92" r="56.92"/><path class="cls-4" d="m94.76,29.77c-9.45-3.04-22.91-4.94-37.84-4.94s-28.4,1.9-37.84,4.94c8.45-11.76,22.25-19.42,37.84-19.42s29.39,7.66,37.84,19.42Z"/><path class="cls-4" d="m103.49,56.92c0,25.72-20.85,46.57-46.57,46.57S10.35,82.64,10.35,56.92c0-3.16.32-6.26.92-9.24,1.32-6.58,4.03-12.65,7.81-17.9,9.45-3.04,22.91-4.94,37.84-4.94s28.4,1.9,37.84,4.94c3.78,5.25,6.48,11.33,7.81,17.9.6,2.99.92,6.08.92,9.24Z"/><path class="cls-3" d="m108.66,40.36c0,2.65-2.2,5.14-6.09,7.31-8.72,4.88-25.89,8.21-45.65,8.21s-36.94-3.32-45.65-8.21c-3.89-2.18-6.09-4.67-6.09-7.31,0-4.09,5.28-7.81,13.9-10.59,9.45-3.04,22.91-4.94,37.84-4.94s28.4,1.9,37.84,4.94c8.62,2.77,13.9,6.49,13.9,10.59Z"/><ellipse class="cls-3" cx="56.92" cy="48.64" rx="51.74" ry="15.52"/><ellipse class="cls-3" cx="56.92" cy="73.48" rx="51.74" ry="15.52"/><ellipse class="cls-3" cx="56.92" cy="65.2" rx="51.74" ry="15.52"/><ellipse class="cls-3" cx="56.92" cy="56.92" rx="51.74" ry="15.52"/><path class="cls-3" d="m72.44,56.92c0,28.58-6.95,51.74-15.52,51.74s-15.52-23.17-15.52-51.74"/><rect class="cls-6" x="27.94" y="35.19" width="57.95" height="43.47"/><rect class="cls-3" x="55.26" y="39.84" width="24.84" height="3.1"/><rect class="cls-3" x="55.26" y="44.49" width="24.84" height="3.1"/><rect class="cls-3" x="55.26" y="49.55" width="24.84" height="3.1"/><rect class="cls-3" x="55.26" y="54.61" width="24.84" height="3.1"/><circle class="cls-5" cx="41.29" cy="44.6" r="5.17"/><path class="cls-5" d="m47.58,73.91h-12.58c-1.1,0-1.99-.89-1.99-1.99v-15.54c0-2.89,2.34-5.24,5.24-5.24h6.09c2.89,0,5.24,2.34,5.24,5.24v15.54c0,1.1-.89,1.99-1.99,1.99Z"/><path class="cls-7" d="m80.12,59.6l-16.32,13.82c-1.23,1.04-3.11.68-3.87-.75l-4.65-8.81,5.07,4.29c.78.66,1.89.78,2.8.31l16.97-8.85Z"/></g></svg>