<?xml version="1.0" encoding="UTF-8"?><svg id="Layer_2" xmlns="http://www.w3.org/2000/svg" viewBox="0 0 243 243"><defs><style>.cls-1{fill:aqua;}</style></defs><g id="Layer_1-2"><circle class="cls-1" cx="121.5" cy="121.5" r="121.5"/><path d="m110.72,148.78c0-4.86-1.76-8.6-5.27-11.2-3.52-2.6-9.84-5.35-18.98-8.24-9.14-2.89-16.38-5.74-21.71-8.54-14.53-7.67-21.8-17.99-21.8-30.98,0-6.75,1.95-12.77,5.84-18.07,3.9-5.29,9.49-9.43,16.79-12.4,7.29-2.97,18.33-4.03,27.41-4.03s14.44,1.19,21.59,4.42c7.15,3.23,12.7,7.8,16.66,13.69,3.96,5.89,6.76,9.55,6.76,17.05h-27c0-5.72-2.04-7.13-5.73-10.31s-8.88-4.76-15.56-4.76-11.46,1.33-15.03,3.99c-3.57,2.66-5.36,6.17-5.36,10.51,0,4.06,2.09,7.47,6.28,10.21,4.19,2.75,10.36,5.32,18.5,7.72,15,4.41,25.93,9.87,32.78,16.39s10.28,14.65,10.28,24.38c0,10.81-4.19,19.3-12.57,25.45-8.38,6.15-19.66,9.23-33.84,9.23-9.84,0-18.81-1.76-26.89-5.28s-14.25-8.34-18.5-14.46c-4.25-6.12-6.37-13.22-6.37-21.29h26.46c0,13.79,8.44,20.68,25.31,20.68,6.27,0,11.16-1.24,14.68-3.73s5.27-5.97,5.27-10.43Z"/><path d="m111.9,183.29V55.32h44.82c15.53,0,27.3,2.97,35.33,8.92,8.03,5.95,12.04,14.66,12.04,26.15,0,6.27-1.61,11.79-4.83,16.57-3.22,4.78-7.71,8.28-13.45,10.5,6.56,1.64,11.73,4.95,15.51,9.93,3.78,4.98,5.67,11.07,5.67,18.28,0,12.3-3.93,21.62-11.78,27.95-7.85,6.33-19.04,9.55-33.57,9.67h-49.75Zm26.37-74.36h19.51c13.3-.23,19.95-5.54,19.95-15.91,0-5.8-1.68-9.98-5.05-12.52-3.37-2.55-8.69-3.82-15.95-3.82h-18.46v32.26Zm0,18.63v34.54h22.59c6.21,0,11.06-1.48,14.55-4.44,3.49-2.96,5.23-7.04,5.23-12.26,0-11.72-6.06-17.67-18.19-17.84h-24.17Z"/><rect x="89.58" y="172.89" width="28.02" height="10.4"/><rect x="93.48" y="55.32" width="28.02" height="10.4"/><rect x="102.44" y="97.49" width="28.02" height="10.88" transform="translate(13.52 219.38) rotate(-90)"/></g></svg>