<?xml version="1.0" encoding="UTF-8"?><svg id="Layer_2" xmlns="http://www.w3.org/2000/svg" viewBox="0 0 243 243"><defs><style>.cls-1{fill:aqua;}</style></defs><g id="Layer_1-2"><circle class="cls-1" cx="121.5" cy="121.5" r="121.5"/><path d="m36.48,147.49c6,3.15,15.6,6.3,25.35,6.3,10.5,0,16.05-4.35,16.05-10.95s-4.8-9.9-16.95-14.1c-16.8-6-27.9-15.3-27.9-30,0-17.25,14.55-30.3,38.25-30.3,11.55,0,19.8,2.25,25.8,5.1l-5.1,18.3c-3.9-1.95-11.25-4.8-21-4.8s-14.7,4.65-14.7,9.75c0,6.45,5.55,9.3,18.75,14.25,17.85,6.6,26.1,15.9,26.1,30.15,0,16.95-12.9,31.35-40.65,31.35-11.55,0-22.95-3.15-28.65-6.3l4.65-18.75Z"/><path d="m188.95,132.34c-.4-12.15-.8-26.85-.8-41.55h-.27c-2.95,12.9-6.7,27.3-10.19,39.15l-10.99,39.45h-15.95l-9.65-39c-2.95-12-5.9-26.4-8.18-39.6h-.27c-.4,13.65-.94,29.25-1.47,41.85l-1.74,38.4h-18.9l5.76-101.1h27.21l8.85,33.75c2.95,11.7,5.63,24.3,7.64,36.15h.54c2.41-11.7,5.5-25.05,8.58-36.3l9.52-33.6h26.81l4.82,101.1h-19.84l-1.47-38.7Z"/></g></svg>